<svg version="1.1" xmlns="http://www.w3.org/2000/svg" xmlns:xlink="http://www.w3.org/1999/xlink" width="2400" height="1600"><defs/><g transform="scale(2,2)"><g id="background-b6037757"><rect fill="white" stroke="none" x="0" y="0" width="1200" height="800" class="dcg-svg-background"/></g><g id="graphpaper-b6037757"><g id="grid-b6037757"><g><path fill="none" stroke="rgb(0,0,0)" class="dcg-svg-minor-gridline" paint-order="fill stroke markers" d=" M 15.5 0 L 15.5 800" stroke-opacity="0.5" stroke-miterlimit="10" stroke-dasharray=""/><path fill="none" stroke="rgb(0,0,0)" class="dcg-svg-minor-gridline" paint-order="fill stroke markers" d=" M 35.5 0 L 35.5 800" stroke-opacity="0.5" stroke-miterlimit="10" stroke-dasharray=""/><path fill="none" stroke="rgb(0,0,0)" class="dcg-svg-minor-gridline" paint-order="fill stroke markers" d=" M 52.5 0 L 52.5 800" stroke-opacity="0.5" stroke-miterlimit="10" stroke-dasharray=""/><path fill="none" stroke="rgb(0,0,0)" class="dcg-svg-minor-gridline" paint-order="fill stroke markers" d=" M 67.5 0 L 67.5 800" stroke-opacity="0.5" stroke-miterlimit="10" stroke-dasharray=""/><path fill="none" stroke="rgb(0,0,0)" class="dcg-svg-minor-gridline" paint-order="fill stroke markers" d=" M 80.5 0 L 80.5 800" stroke-opacity="0.5" stroke-miterlimit="10" stroke-dasharray=""/><path fill="none" stroke="rgb(0,0,0)" class="dcg-svg-minor-gridline" paint-order="fill stroke markers" d=" M 169.5 0 L 169.5 800" stroke-opacity="0.5" stroke-miterlimit="10" stroke-dasharray=""/><path fill="none" stroke="rgb(0,0,0)" class="dcg-svg-minor-gridline" paint-order="fill stroke markers" d=" M 214.5 0 L 214.5 800" stroke-opacity="0.5" stroke-miterlimit="10" stroke-dasharray=""/><path fill="none" stroke="rgb(0,0,0)" class="dcg-svg-minor-gridline" paint-order="fill stroke markers" d=" M 245.5 0 L 245.5 800" stroke-opacity="0.5" stroke-miterlimit="10" stroke-dasharray=""/><path fill="none" stroke="rgb(0,0,0)" class="dcg-svg-minor-gridline" paint-order="fill stroke markers" d=" M 270.5 0 L 270.5 800" stroke-opacity="0.5" stroke-miterlimit="10" stroke-dasharray=""/><path fill="none" stroke="rgb(0,0,0)" class="dcg-svg-minor-gridline" paint-order="fill stroke markers" d=" M 290.5 0 L 290.5 800" stroke-opacity="0.5" stroke-miterlimit="10" stroke-dasharray=""/><path fill="none" stroke="rgb(0,0,0)" class="dcg-svg-minor-gridline" paint-order="fill stroke markers" d=" M 307.5 0 L 307.5 800" stroke-opacity="0.5" stroke-miterlimit="10" stroke-dasharray=""/><path fill="none" stroke="rgb(0,0,0)" class="dcg-svg-minor-gridline" paint-order="fill stroke markers" d=" M 322.5 0 L 322.5 800" stroke-opacity="0.5" stroke-miterlimit="10" stroke-dasharray=""/><path fill="none" stroke="rgb(0,0,0)" class="dcg-svg-minor-gridline" paint-order="fill stroke markers" d=" M 335.5 0 L 335.5 800" stroke-opacity="0.5" stroke-miterlimit="10" stroke-dasharray=""/><path fill="none" stroke="rgb(0,0,0)" class="dcg-svg-minor-gridline" paint-order="fill stroke markers" d=" M 423.5 0 L 423.5 800" stroke-opacity="0.5" stroke-miterlimit="10" stroke-dasharray=""/><path fill="none" stroke="rgb(0,0,0)" class="dcg-svg-minor-gridline" paint-order="fill stroke markers" d=" M 468.5 0 L 468.5 800" stroke-opacity="0.5" stroke-miterlimit="10" stroke-dasharray=""/><path fill="none" stroke="rgb(0,0,0)" class="dcg-svg-minor-gridline" paint-order="fill stroke markers" d=" M 500.5 0 L 500.5 800" stroke-opacity="0.5" stroke-miterlimit="10" stroke-dasharray=""/><path fill="none" stroke="rgb(0,0,0)" class="dcg-svg-minor-gridline" paint-order="fill stroke markers" d=" M 525.5 0 L 525.5 800" stroke-opacity="0.5" stroke-miterlimit="10" stroke-dasharray=""/><path fill="none" stroke="rgb(0,0,0)" class="dcg-svg-minor-gridline" paint-order="fill stroke markers" d=" M 545.5 0 L 545.5 800" stroke-opacity="0.5" stroke-miterlimit="10" stroke-dasharray=""/><path fill="none" stroke="rgb(0,0,0)" class="dcg-svg-minor-gridline" paint-order="fill stroke markers" d=" M 562.5 0 L 562.5 800" stroke-opacity="0.5" stroke-miterlimit="10" stroke-dasharray=""/><path fill="none" stroke="rgb(0,0,0)" class="dcg-svg-minor-gridline" paint-order="fill stroke markers" d=" M 577.5 0 L 577.5 800" stroke-opacity="0.5" stroke-miterlimit="10" stroke-dasharray=""/><path fill="none" stroke="rgb(0,0,0)" class="dcg-svg-minor-gridline" paint-order="fill stroke markers" d=" M 590.5 0 L 590.5 800" stroke-opacity="0.5" stroke-miterlimit="10" stroke-dasharray=""/><path fill="none" stroke="rgb(0,0,0)" class="dcg-svg-minor-gridline" paint-order="fill stroke markers" d=" M 678.5 0 L 678.5 800" stroke-opacity="0.5" stroke-miterlimit="10" stroke-dasharray=""/><path fill="none" stroke="rgb(0,0,0)" class="dcg-svg-minor-gridline" paint-order="fill stroke markers" d=" M 723.5 0 L 723.5 800" stroke-opacity="0.5" stroke-miterlimit="10" stroke-dasharray=""/><path fill="none" stroke="rgb(0,0,0)" class="dcg-svg-minor-gridline" paint-order="fill stroke markers" d=" M 755.5 0 L 755.5 800" stroke-opacity="0.5" stroke-miterlimit="10" stroke-dasharray=""/><path fill="none" stroke="rgb(0,0,0)" class="dcg-svg-minor-gridline" paint-order="fill stroke markers" d=" M 780.5 0 L 780.5 800" stroke-opacity="0.5" stroke-miterlimit="10" stroke-dasharray=""/><path fill="none" stroke="rgb(0,0,0)" class="dcg-svg-minor-gridline" paint-order="fill stroke markers" d=" M 800.5 0 L 800.5 800" stroke-opacity="0.5" stroke-miterlimit="10" stroke-dasharray=""/><path fill="none" stroke="rgb(0,0,0)" class="dcg-svg-minor-gridline" paint-order="fill stroke markers" d=" M 817.5 0 L 817.5 800" stroke-opacity="0.5" stroke-miterlimit="10" stroke-dasharray=""/><path fill="none" stroke="rgb(0,0,0)" class="dcg-svg-minor-gridline" paint-order="fill stroke markers" d=" M 832.5 0 L 832.5 800" stroke-opacity="0.5" stroke-miterlimit="10" stroke-dasharray=""/><path fill="none" stroke="rgb(0,0,0)" class="dcg-svg-minor-gridline" paint-order="fill stroke markers" d=" M 845.5 0 L 845.5 800" stroke-opacity="0.5" stroke-miterlimit="10" stroke-dasharray=""/><path fill="none" stroke="rgb(0,0,0)" class="dcg-svg-minor-gridline" paint-order="fill stroke markers" d=" M 933.5 0 L 933.5 800" stroke-opacity="0.5" stroke-miterlimit="10" stroke-dasharray=""/><path fill="none" stroke="rgb(0,0,0)" class="dcg-svg-minor-gridline" paint-order="fill stroke markers" d=" M 978.5 0 L 978.5 800" stroke-opacity="0.5" stroke-miterlimit="10" stroke-dasharray=""/><path fill="none" stroke="rgb(0,0,0)" class="dcg-svg-minor-gridline" paint-order="fill stroke markers" d=" M 1010.5 0 L 1010.5 800" stroke-opacity="0.5" stroke-miterlimit="10" stroke-dasharray=""/><path fill="none" stroke="rgb(0,0,0)" class="dcg-svg-minor-gridline" paint-order="fill stroke markers" d=" M 1035.5 0 L 1035.5 800" stroke-opacity="0.5" stroke-miterlimit="10" stroke-dasharray=""/><path fill="none" stroke="rgb(0,0,0)" class="dcg-svg-minor-gridline" paint-order="fill stroke markers" d=" M 1055.5 0 L 1055.5 800" stroke-opacity="0.5" stroke-miterlimit="10" stroke-dasharray=""/><path fill="none" stroke="rgb(0,0,0)" class="dcg-svg-minor-gridline" paint-order="fill stroke markers" d=" M 1072.5 0 L 1072.5 800" stroke-opacity="0.5" stroke-miterlimit="10" stroke-dasharray=""/><path fill="none" stroke="rgb(0,0,0)" class="dcg-svg-minor-gridline" paint-order="fill stroke markers" d=" M 1087.5 0 L 1087.5 800" stroke-opacity="0.5" stroke-miterlimit="10" stroke-dasharray=""/><path fill="none" stroke="rgb(0,0,0)" class="dcg-svg-minor-gridline" paint-order="fill stroke markers" d=" M 1100.5 0 L 1100.5 800" stroke-opacity="0.5" stroke-miterlimit="10" stroke-dasharray=""/><path fill="none" stroke="rgb(0,0,0)" class="dcg-svg-minor-gridline" paint-order="fill stroke markers" d=" M 1188.5 0 L 1188.5 800" stroke-opacity="0.5" stroke-miterlimit="10" stroke-dasharray=""/><path fill="none" stroke="rgb(0,0,0)" class="dcg-svg-minor-gridline" paint-order="fill stroke markers" d=" M 0 788.5 L 1200 788.5" stroke-opacity="0.5" stroke-miterlimit="10" stroke-dasharray=""/><path fill="none" stroke="rgb(0,0,0)" class="dcg-svg-minor-gridline" paint-order="fill stroke markers" d=" M 0 755.5 L 1200 755.5" stroke-opacity="0.5" stroke-miterlimit="10" stroke-dasharray=""/><path fill="none" stroke="rgb(0,0,0)" class="dcg-svg-minor-gridline" paint-order="fill stroke markers" d=" M 0 726.5 L 1200 726.5" stroke-opacity="0.5" stroke-miterlimit="10" stroke-dasharray=""/><path fill="none" stroke="rgb(0,0,0)" class="dcg-svg-minor-gridline" paint-order="fill stroke markers" d=" M 0 701.5 L 1200 701.5" stroke-opacity="0.5" stroke-miterlimit="10" stroke-dasharray=""/><path fill="none" stroke="rgb(0,0,0)" class="dcg-svg-minor-gridline" paint-order="fill stroke markers" d=" M 0 527.5 L 1200 527.5" stroke-opacity="0.5" stroke-miterlimit="10" stroke-dasharray=""/><path fill="none" stroke="rgb(0,0,0)" class="dcg-svg-minor-gridline" paint-order="fill stroke markers" d=" M 0 439.5 L 1200 439.5" stroke-opacity="0.5" stroke-miterlimit="10" stroke-dasharray=""/><path fill="none" stroke="rgb(0,0,0)" class="dcg-svg-minor-gridline" paint-order="fill stroke markers" d=" M 0 377.5 L 1200 377.5" stroke-opacity="0.5" stroke-miterlimit="10" stroke-dasharray=""/><path fill="none" stroke="rgb(0,0,0)" class="dcg-svg-minor-gridline" paint-order="fill stroke markers" d=" M 0 329.5 L 1200 329.5" stroke-opacity="0.5" stroke-miterlimit="10" stroke-dasharray=""/><path fill="none" stroke="rgb(0,0,0)" class="dcg-svg-minor-gridline" paint-order="fill stroke markers" d=" M 0 289.5 L 1200 289.5" stroke-opacity="0.5" stroke-miterlimit="10" stroke-dasharray=""/><path fill="none" stroke="rgb(0,0,0)" class="dcg-svg-minor-gridline" paint-order="fill stroke markers" d=" M 0 256.5 L 1200 256.5" stroke-opacity="0.5" stroke-miterlimit="10" stroke-dasharray=""/><path fill="none" stroke="rgb(0,0,0)" class="dcg-svg-minor-gridline" paint-order="fill stroke markers" d=" M 0 227.5 L 1200 227.5" stroke-opacity="0.5" stroke-miterlimit="10" stroke-dasharray=""/><path fill="none" stroke="rgb(0,0,0)" class="dcg-svg-minor-gridline" paint-order="fill stroke markers" d=" M 0 201.5 L 1200 201.5" stroke-opacity="0.5" stroke-miterlimit="10" stroke-dasharray=""/><path fill="none" stroke="rgb(0,0,0)" class="dcg-svg-minor-gridline" paint-order="fill stroke markers" d=" M 0 28.5 L 1200 28.5" stroke-opacity="0.5" stroke-miterlimit="10" stroke-dasharray=""/><path fill="none" stroke="rgb(0,0,0)" class="dcg-svg-major-gridline" paint-order="fill stroke markers" d=" M 92.5 0 L 92.5 800" stroke-opacity="1" stroke-miterlimit="10" stroke-dasharray=""/><path fill="none" stroke="rgb(0,0,0)" class="dcg-svg-major-gridline" paint-order="fill stroke markers" d=" M 347.5 0 L 347.5 800" stroke-opacity="1" stroke-miterlimit="10" stroke-dasharray=""/><path fill="none" stroke="rgb(0,0,0)" class="dcg-svg-major-gridline" paint-order="fill stroke markers" d=" M 602.5 0 L 602.5 800" stroke-opacity="1" stroke-miterlimit="10" stroke-dasharray=""/><path fill="none" stroke="rgb(0,0,0)" class="dcg-svg-major-gridline" paint-order="fill stroke markers" d=" M 856.5 0 L 856.5 800" stroke-opacity="1" stroke-miterlimit="10" stroke-dasharray=""/><path fill="none" stroke="rgb(0,0,0)" class="dcg-svg-major-gridline" paint-order="fill stroke markers" d=" M 1111.5 0 L 1111.5 800" stroke-opacity="1" stroke-miterlimit="10" stroke-dasharray=""/><path fill="none" stroke="rgb(0,0,0)" class="dcg-svg-major-gridline" paint-order="fill stroke markers" d=" M 0 678.5 L 1200 678.5" stroke-opacity="1" stroke-miterlimit="10" stroke-dasharray=""/><path fill="none" stroke="rgb(0,0,0)" class="dcg-svg-major-gridline" paint-order="fill stroke markers" d=" M 0 178.5 L 1200 178.5" stroke-opacity="1" stroke-miterlimit="10" stroke-dasharray=""/></g></g><g id="axis-b6037757"><g id="yaxis-b6037757"><title>Y axis</title><g><path fill="none" stroke="rgb(0,0,0)" class="dcg-svg-axis-line" paint-order="fill stroke markers" d=" M -Infinity 0 L -Infinity 800" stroke-opacity="0.9" stroke-miterlimit="10" stroke-width="2" stroke-dasharray=""/></g></g><g id="xaxis-b6037757"><title>X axis</title><g><path fill="none" stroke="rgb(0,0,0)" class="dcg-svg-axis-line" paint-order="fill stroke markers" d=" M 0 Infinity L 1200 Infinity" stroke-opacity="0.9" stroke-miterlimit="10" stroke-width="2" stroke-dasharray=""/></g></g><g><g class="dcg-svg-axis-value"><text fill="none" stroke="#ffffff" font-family="Arial" font-size="20px" font-style="normal" font-weight="normal" text-decoration="normal" x="-Infinity" y="Infinity" text-anchor="middle" stroke-miterlimit="2" stroke-width="3" stroke-dasharray="">0</text><text fill="#000000" stroke="none" font-family="Arial" font-size="20px" font-style="normal" font-weight="normal" text-decoration="normal" x="-Infinity" y="Infinity" text-anchor="middle">0</text></g><g class="dcg-svg-axis-value"><text fill="none" stroke="#ffffff" font-family="Arial" font-size="20px" font-style="normal" font-weight="normal" text-decoration="normal" x="92.45034576457496" y="792.44" text-anchor="middle" stroke-miterlimit="2" stroke-width="3" stroke-dasharray="">10</text><text fill="#000000" stroke="none" font-family="Arial" font-size="20px" font-style="normal" font-weight="normal" text-decoration="normal" x="92.45034576457496" y="792.44" text-anchor="middle">10</text></g><g class="dcg-svg-axis-value"><text fill="none" stroke="#ffffff" font-family="Arial" font-size="20px" font-style="normal" font-weight="normal" text-decoration="normal" x="347.26459054360936" y="792.44" text-anchor="middle" stroke-miterlimit="2" stroke-width="3" stroke-dasharray="">100</text><text fill="#000000" stroke="none" font-family="Arial" font-size="20px" font-style="normal" font-weight="normal" text-decoration="normal" x="347.26459054360936" y="792.44" text-anchor="middle">100</text></g><g class="dcg-svg-axis-value"><text fill="none" stroke="#ffffff" font-family="Arial" font-size="20px" font-style="normal" font-weight="normal" text-decoration="normal" x="602.0788353226437" y="792.44" text-anchor="middle" stroke-miterlimit="2" stroke-width="3" stroke-dasharray="">1000</text><text fill="#000000" stroke="none" font-family="Arial" font-size="20px" font-style="normal" font-weight="normal" text-decoration="normal" x="602.0788353226437" y="792.44" text-anchor="middle">1000</text></g><g class="dcg-svg-axis-value"><text fill="none" stroke="#ffffff" font-family="Arial" font-size="20px" font-style="normal" font-weight="normal" text-decoration="normal" x="856.8930801016782" y="792.44" text-anchor="middle" stroke-miterlimit="2" stroke-width="3" stroke-dasharray="">10</text><text fill="none" stroke="#ffffff" font-family="Arial" font-size="20px" font-style="normal" font-weight="normal" text-decoration="normal" x="872.4653457266782" y="783.44" text-anchor="middle" stroke-miterlimit="2" stroke-width="3" stroke-dasharray="">4</text><text fill="#000000" stroke="none" font-family="Arial" font-size="20px" font-style="normal" font-weight="normal" text-decoration="normal" x="856.8930801016782" y="792.44" text-anchor="middle">10</text><text fill="#000000" stroke="none" font-family="Arial" font-size="20px" font-style="normal" font-weight="normal" text-decoration="normal" x="872.4653457266782" y="783.44" text-anchor="middle">4</text></g><g class="dcg-svg-axis-value"><text fill="none" stroke="#ffffff" font-family="Arial" font-size="20px" font-style="normal" font-weight="normal" text-decoration="normal" x="1111.7073248807123" y="792.44" text-anchor="middle" stroke-miterlimit="2" stroke-width="3" stroke-dasharray="">10</text><text fill="none" stroke="#ffffff" font-family="Arial" font-size="20px" font-style="normal" font-weight="normal" text-decoration="normal" x="1127.2795905057123" y="783.44" text-anchor="middle" stroke-miterlimit="2" stroke-width="3" stroke-dasharray="">5</text><text fill="#000000" stroke="none" font-family="Arial" font-size="20px" font-style="normal" font-weight="normal" text-decoration="normal" x="1111.7073248807123" y="792.44" text-anchor="middle">10</text><text fill="#000000" stroke="none" font-family="Arial" font-size="20px" font-style="normal" font-weight="normal" text-decoration="normal" x="1127.2795905057123" y="783.44" text-anchor="middle">5</text></g><g class="dcg-svg-axis-value"><text fill="none" stroke="#ffffff" font-family="Arial" font-size="20px" font-style="normal" font-weight="normal" text-decoration="normal" x="22.462890625" y="683.5909467946165" text-anchor="middle" stroke-miterlimit="2" stroke-width="3" stroke-dasharray="">0.01</text><text fill="#000000" stroke="none" font-family="Arial" font-size="20px" font-style="normal" font-weight="normal" text-decoration="normal" x="22.462890625" y="683.5909467946165" text-anchor="middle">0.01</text></g><g class="dcg-svg-axis-value"><text fill="none" stroke="#ffffff" font-family="Arial" font-size="20px" font-style="normal" font-weight="normal" text-decoration="normal" x="16.9013671875" y="184.23386632918863" text-anchor="middle" stroke-miterlimit="2" stroke-width="3" stroke-dasharray="">0.1</text><text fill="#000000" stroke="none" font-family="Arial" font-size="20px" font-style="normal" font-weight="normal" text-decoration="normal" x="16.9013671875" y="184.23386632918863" text-anchor="middle">0.1</text></g></g></g></g><g id="expressions-b6037757"><g id="sketch-b6037757"><title>Expression 1</title><path fill="#fa7e19" stroke="none" paint-order="stroke fill markers" d="" fill-opacity="0.4"/><g><path fill="none" stroke="#fa7e19" class="dcg-svg-curve" paint-order="fill stroke markers" d=" M 68.25125383076768 808 L 68.25125383076768 808 L 68.26171875 739.1805864243752 L 69.14062499999997 630.355376943915 L 70.31250000000003 564.4244481729899 L 71.77734375 516.015900100419 L 73.53515624999997 477.54564416511766 L 75.5859375 445.6075620600617 L 77.92968749999997 418.3458473257207 L 80.56640625 394.62568331618945 L 83.49609374999997 373.6973410084546 L 86.71875 355.037110961453 L 90.23437499999997 338.26336147647805 L 94.04296875 323.0885616204861 L 98.14453124999994 309.29012337259473 L 102.53906249999994 296.69179506132696 L 107.22656249999994 285.1513066128564 L 112.20703125 274.5518906707608 L 117.48046875 264.79629923425193 L 123.046875 255.80247949564784 L 129.19921874999994 247.11246714172648 L 135.64453125 239.147646972261 L 142.67578124999994 231.5382153709063 L 150.5859375 224.073352083126 L 159.08203125 217.10725189018785 L 167.87109375 210.8366396909505 L 177.24609375 205.0089932446158 L 186.9140625 199.76882885726616 L 197.16796875 194.92010328712774 L 208.0078125 190.45589185616916 L 219.72656249999994 186.26753394816166 L 232.32421875 182.38064355326912 L 245.80078124999994 178.80931088536147 L 260.44921874999994 175.49707101482954 L 276.56249999999994 172.41797574706504 L 294.14062499999994 169.6100341683561 L 313.76953125 167.02410644643209 L 335.7421875 164.6785716803024 L 360.3515625 162.59233221762867 L 388.4765624999999 160.74612644155712 L 420.99609375 159.14719523082402 L 459.66796875 157.7854179674664 L 506.8359375 156.6684675270186 L 566.6015625 155.79947093939472 L 647.7539062499999 155.1731667827268 L 772.265625 154.7840434319525 L 1026.26953125 154.61629107529416 L 1200 154.6014220433724" stroke-linecap="round" stroke-linejoin="round" stroke-miterlimit="10" stroke-width="5" stroke-dasharray=""/></g></g><g id="sketch-b6037757"><title/><path fill="#fa7e19" stroke="none" class="dcg-svg-point" paint-order="stroke fill markers" d=" M 205.10112854170256 184.8635765245611 A 11.25 11.25 0 1 1 205.10112291670305 184.8523265264361 L 199.47612854170256 184.8635765245611 A 5.625 5.625 0 1 0 199.4761257292028 184.8692015236236 Z"/><path fill="white" stroke="none" class="dcg-svg-point" paint-order="stroke fill markers" d=" M 199.47612854170256 184.8635765245611 A 5.625 5.625 0 1 1 199.4761257292028 184.8579515254986 Z"/><path fill="#fa7e19" stroke="none" class="dcg-svg-point" paint-order="stroke fill markers" d=" M 358.51459054360936 155.03128199055567 A 11.25 11.25 0 1 1 358.51458491860984 155.02003199243066 L 352.88959054360936 155.03128199055567 A 5.625 5.625 0 1 0 352.8895877311096 155.03690698961816 Z"/><path fill="white" stroke="none" class="dcg-svg-point" paint-order="stroke fill markers" d=" M 352.88959054360936 155.03128199055567 A 5.625 5.625 0 1 1 352.8895877311096 155.02565699149318 Z"/><path fill="#fa7e19" stroke="none" class="dcg-svg-point" paint-order="stroke fill markers" d=" M 613.3288353226437 149.08826998625176 A 11.25 11.25 0 1 1 613.3288296976442 149.07701998812675 L 607.7038353226437 149.08826998625176 A 5.625 5.625 0 1 0 607.7038325101439 149.09389498531425 Z"/><path fill="white" stroke="none" class="dcg-svg-point" paint-order="stroke fill markers" d=" M 607.7038353226437 149.08826998625176 A 5.625 5.625 0 1 1 607.7038325101439 149.08264498718927 Z"/><path fill="#fa7e19" stroke="none" class="dcg-svg-point" paint-order="stroke fill markers" d=" M 868.1430801016782 149.372116313425 A 11.25 11.25 0 1 1 868.1430744766786 149.3608663153 L 862.5180801016782 149.372116313425 A 5.625 5.625 0 1 0 862.5180772891783 149.3777413124875 Z"/><path fill="white" stroke="none" class="dcg-svg-point" paint-order="stroke fill markers" d=" M 862.5180801016782 149.372116313425 A 5.625 5.625 0 1 1 862.5180772891783 149.36649131436252 Z"/><path fill="#fa7e19" stroke="none" class="dcg-svg-point" paint-order="stroke fill markers" d=" M 1122.9573248807123 149.95991197476286 A 11.25 11.25 0 1 1 1122.9573192557127 149.94866197663785 L 1117.3323248807123 149.95991197476286 A 5.625 5.625 0 1 0 1117.3323220682125 149.96553697382535 Z"/><path fill="white" stroke="none" class="dcg-svg-point" paint-order="stroke fill markers" d=" M 1117.3323248807123 149.95991197476286 A 5.625 5.625 0 1 1 1117.3323220682125 149.95428697570037 Z"/></g><g id="sketch-b6037757"><title>Expression 3</title><path fill="#6042a6" stroke="none" paint-order="stroke fill markers" d="" fill-opacity="0.4"/><g><path fill="none" stroke="#6042a6" class="dcg-svg-curve" paint-order="fill stroke markers" d=" M 169.92269740533976 808 L 169.92269740533976 808 L 170.50781249999994 732.3599920102306 L 171.67968749999994 665.1996886193281 L 173.14453124999994 616.2663766517948 L 174.90234374999994 577.5186263755586 L 176.95312499999994 545.4146446138678 L 179.29687499999994 518.0453911984167 L 181.93359374999994 494.25136990707756 L 184.86328125 473.2700426198494 L 188.08593749999994 454.5704817648216 L 191.6015625 437.7667237209189 L 195.41015624999994 422.56850461343697 L 199.51171875 408.7514406340025 L 203.90624999999994 396.13805947612775 L 208.59374999999994 384.5852372538376 L 213.57421875 373.97559451401366 L 218.84765624999994 364.21143497136245 L 224.4140625 355.2103712957071 L 230.56640624999994 346.51390831387914 L 237.01171874999994 338.54361341633637 L 244.04296875 330.92931414686234 L 251.95312499999994 323.4599965415474 L 260.44921874999994 316.49000748993456 L 269.23828124999994 310.21610218001035 L 278.61328124999994 304.3855614488142 L 288.28124999999994 299.1429241525931 L 298.53515625 294.2920144868573 L 309.37499999999994 289.8258767502548 L 321.09375 285.63578229821087 L 333.69140625 281.7473392922237 L 347.16796875 278.174628318607 L 361.81640625 274.86115009589173 L 377.9296875 271.7809370917629 L 395.5078125 268.9720035205106 L 415.13671875 266.38518469235635 L 437.109375 264.0388598406057 L 461.7187499999999 261.95193185763117 L 489.8437499999999 260.10512773382254 L 522.3632812499999 258.5056864873003 L 561.0351562499999 257.1434807297409 L 608.2031249999999 256.0261828279863 L 667.96875 255.1569183780474 L 749.1210937499999 254.5304224945413 L 873.6328124999999 254.14118058042095 L 1127.63671875 253.97337724185638 L 1200 253.96436221662123" stroke-linecap="round" stroke-linejoin="round" stroke-miterlimit="10" stroke-width="5" stroke-dasharray=""/></g></g><g id="sketch-b6037757"><title/><path fill="#6042a6" stroke="none" class="dcg-svg-point" paint-order="stroke fill markers" d=" M 205.10112854170256 411.98911745953933 A 11.25 11.25 0 1 1 205.10112291670305 411.97786746141435 L 199.47612854170256 411.98911745953933 A 5.625 5.625 0 1 0 199.4761257292028 411.9947424586018 Z"/><path fill="white" stroke="none" class="dcg-svg-point" paint-order="stroke fill markers" d=" M 199.47612854170256 411.98911745953933 A 5.625 5.625 0 1 1 199.4761257292028 411.98349246047684 Z"/><path fill="#6042a6" stroke="none" class="dcg-svg-point" paint-order="stroke fill markers" d=" M 358.51459054360936 272.1501879909887 A 11.25 11.25 0 1 1 358.51458491860984 272.1389379928637 L 352.88959054360936 272.1501879909887 A 5.625 5.625 0 1 0 352.8895877311096 272.1558129900512 Z"/><path fill="white" stroke="none" class="dcg-svg-point" paint-order="stroke fill markers" d=" M 352.88959054360936 272.1501879909887 A 5.625 5.625 0 1 1 352.8895877311096 272.1445629919262 Z"/><path fill="#6042a6" stroke="none" class="dcg-svg-point" paint-order="stroke fill markers" d=" M 613.3288353226437 254.41721561498184 A 11.25 11.25 0 1 1 613.3288296976442 254.40596561685683 L 607.7038353226437 254.41721561498184 A 5.625 5.625 0 1 0 607.7038325101439 254.42284061404433 Z"/><path fill="white" stroke="none" class="dcg-svg-point" paint-order="stroke fill markers" d=" M 607.7038353226437 254.41721561498184 A 5.625 5.625 0 1 1 607.7038325101439 254.41159061591935 Z"/><path fill="#6042a6" stroke="none" class="dcg-svg-point" paint-order="stroke fill markers" d=" M 868.1430801016782 252.88587169720324 A 11.25 11.25 0 1 1 868.1430744766786 252.87462169907823 L 862.5180801016782 252.88587169720324 A 5.625 5.625 0 1 0 862.5180772891783 252.89149669626573 Z"/><path fill="white" stroke="none" class="dcg-svg-point" paint-order="stroke fill markers" d=" M 862.5180801016782 252.88587169720324 A 5.625 5.625 0 1 1 862.5180772891783 252.88024669814075 Z"/><path fill="#6042a6" stroke="none" class="dcg-svg-point" paint-order="stroke fill markers" d=" M 1122.9573248807123 251.27436686867304 A 11.25 11.25 0 1 1 1122.9573192557127 251.26311687054803 L 1117.3323248807123 251.27436686867304 A 5.625 5.625 0 1 0 1117.3323220682125 251.27999186773553 Z"/><path fill="white" stroke="none" class="dcg-svg-point" paint-order="stroke fill markers" d=" M 1117.3323248807123 251.27436686867304 A 5.625 5.625 0 1 1 1117.3323220682125 251.26874186961055 Z"/></g><g id="sketch-b6037757"><title>Expression 5</title><path fill="#000000" stroke="none" paint-order="stroke fill markers" d="" fill-opacity="0.4"/><g><path fill="none" stroke="#000000" class="dcg-svg-curve" paint-order="fill stroke markers" d=" M 68.31293319344515 808 L 68.31293319344515 808 L 69.14062499999997 705.5161068275579 L 70.31250000000003 639.5851780566328 L 71.77734375 591.1766299840621 L 73.53515624999997 552.7063740487606 L 75.5859375 520.7682919437046 L 77.92968749999997 493.50657720936374 L 80.56640625 469.7864131998324 L 83.49609374999997 448.85807089209766 L 86.71875 430.1978408450959 L 90.23437499999997 413.4240913601211 L 94.04296875 398.24929150412913 L 98.14453124999994 384.4508532562378 L 102.53906249999994 371.85252494497 L 107.22656249999994 360.31203649649945 L 112.20703125 349.71262055440377 L 117.48046875 339.957029117895 L 123.046875 330.9632093792909 L 129.19921874999994 322.27319702536954 L 135.64453125 314.30837685590393 L 142.67578124999994 306.69894525454936 L 150.5859375 299.23408196676905 L 159.08203125 292.2679817738309 L 167.87109375 285.99736957459356 L 177.24609375 280.16972312825885 L 186.9140625 274.9295587409092 L 197.16796875 270.0808331707707 L 208.0078125 265.6166217398121 L 219.72656249999994 261.42826383180466 L 232.32421875 257.5413734369122 L 245.80078124999994 253.97004076900453 L 260.44921874999994 250.6578008984726 L 276.56249999999994 247.5787056307081 L 294.14062499999994 244.7707640519991 L 313.76953125 242.18483633007497 L 335.7421875 239.83930156394547 L 360.3515625 237.75306210127167 L 388.4765624999999 235.90685632520012 L 420.99609375 234.30792511446703 L 459.66796875 232.94614785110934 L 506.8359375 231.82919741066166 L 566.6015625 230.96020082303778 L 647.7539062499999 230.3338966663697 L 772.265625 229.9447733155955 L 1026.26953125 229.77702095893721 L 1200 229.76215192701545" stroke-linecap="round" stroke-linejoin="round" stroke-miterlimit="10" stroke-width="5" stroke-dasharray=""/></g></g><g id="sketch-b6037757"><title/><path fill="#000000" stroke="none" class="dcg-svg-point" paint-order="stroke fill markers" d=" M 205.10112854170256 264.9014476575717 A 11.25 11.25 0 1 1 205.10112291670305 264.8901976594467 L 199.47612854170256 264.9014476575717 A 5.625 5.625 0 1 0 199.4761257292028 264.90707265663417 Z"/><path fill="white" stroke="none" class="dcg-svg-point" paint-order="stroke fill markers" d=" M 199.47612854170256 264.9014476575717 A 5.625 5.625 0 1 1 199.4761257292028 264.8958226585092 Z"/><path fill="#000000" stroke="none" class="dcg-svg-point" paint-order="stroke fill markers" d=" M 358.51459054360936 233.42918979360934 A 11.25 11.25 0 1 1 358.51458491860984 233.41793979548433 L 352.88959054360936 233.42918979360934 A 5.625 5.625 0 1 0 352.8895877311096 233.43481479267183 Z"/><path fill="white" stroke="none" class="dcg-svg-point" paint-order="stroke fill markers" d=" M 352.88959054360936 233.42918979360934 A 5.625 5.625 0 1 1 352.8895877311096 233.42356479454685 Z"/><path fill="#000000" stroke="none" class="dcg-svg-point" paint-order="stroke fill markers" d=" M 613.3288353226437 227.91973499286894 A 11.25 11.25 0 1 1 613.3288296976442 227.90848499474393 L 607.7038353226437 227.91973499286894 A 5.625 5.625 0 1 0 607.7038325101439 227.92535999193143 Z"/><path fill="white" stroke="none" class="dcg-svg-point" paint-order="stroke fill markers" d=" M 607.7038353226437 227.91973499286894 A 5.625 5.625 0 1 1 607.7038325101439 227.91410999380645 Z"/><path fill="#000000" stroke="none" class="dcg-svg-point" paint-order="stroke fill markers" d=" M 868.1430801016782 228.24638452048896 A 11.25 11.25 0 1 1 868.1430744766786 228.23513452236395 L 862.5180801016782 228.24638452048896 A 5.625 5.625 0 1 0 862.5180772891783 228.25200951955145 Z"/><path fill="white" stroke="none" class="dcg-svg-point" paint-order="stroke fill markers" d=" M 862.5180801016782 228.24638452048896 A 5.625 5.625 0 1 1 862.5180772891783 228.24075952142647 Z"/><path fill="#000000" stroke="none" class="dcg-svg-point" paint-order="stroke fill markers" d=" M 1122.9573248807123 226.4558702690589 A 11.25 11.25 0 1 1 1122.9573192557127 226.44462027093388 L 1117.3323248807123 226.4558702690589 A 5.625 5.625 0 1 0 1117.3323220682125 226.46149526812138 Z"/><path fill="white" stroke="none" class="dcg-svg-point" paint-order="stroke fill markers" d=" M 1117.3323248807123 226.4558702690589 A 5.625 5.625 0 1 1 1117.3323220682125 226.4502452699964 Z"/></g><g id="sketch-b6037757"><title>Expression 7</title><path fill="#c74440" stroke="none" paint-order="stroke fill markers" d="" fill-opacity="0.4"/><g><path fill="none" stroke="#c74440" class="dcg-svg-curve" paint-order="fill stroke markers" d=" M 170.5041050327232 808 L 170.5041050327232 808 L 170.50781249999994 807.5207218938738 L 171.67968749999994 740.360418502971 L 173.14453124999994 691.4271065354378 L 174.90234374999994 652.6793562592017 L 176.95312499999994 620.5753744975108 L 179.29687499999994 593.2061210820597 L 181.93359374999994 569.4120997907206 L 184.86328125 548.4307725034924 L 188.08593749999994 529.7312116484645 L 191.6015625 512.927453604562 L 195.41015624999994 497.72923449708003 L 199.51171875 483.91217051764556 L 203.90624999999994 471.2987893597707 L 208.59374999999994 459.74596713748065 L 213.57421875 449.1363243976566 L 218.84765624999994 439.3721648550055 L 224.4140625 430.37110117935015 L 230.56640624999994 421.6746381975221 L 237.01171874999994 413.7043432999793 L 244.04296875 406.0900440305054 L 251.95312499999994 398.62072642519047 L 260.44921874999994 391.6507373735776 L 269.23828124999994 385.3768320636534 L 278.61328124999994 379.54629133245726 L 288.28124999999994 374.30365403623614 L 298.53515625 369.4527443705002 L 309.37499999999994 364.98660663389785 L 321.09375 360.7965121818539 L 333.69140625 356.9080691758668 L 347.16796875 353.33535820225006 L 361.81640625 350.0218799795347 L 377.9296875 346.94166697540584 L 395.5078125 344.13273340415367 L 415.13671875 341.5459145759994 L 437.109375 339.19958972424877 L 461.7187499999999 337.1126617412742 L 489.8437499999999 335.2658576174656 L 522.3632812499999 333.66641637094324 L 561.0351562499999 332.3042106133838 L 608.2031249999999 331.18691271162936 L 667.96875 330.31764826169035 L 749.1210937499999 329.69115237818437 L 873.6328124999999 329.3019104640639 L 1127.63671875 329.13410712549944 L 1200 329.12509210026417" stroke-linecap="round" stroke-linejoin="round" stroke-miterlimit="10" stroke-width="5" stroke-dasharray=""/></g></g><g id="sketch-b6037757"><title/><path fill="#c74440" stroke="none" class="dcg-svg-point" paint-order="stroke fill markers" d=" M 205.10112854170256 487.8384327699997 A 11.25 11.25 0 1 1 205.10112291670305 487.82718277187473 L 199.47612854170256 487.8384327699997 A 5.625 5.625 0 1 0 199.4761257292028 487.8440577690622 Z"/><path fill="white" stroke="none" class="dcg-svg-point" paint-order="stroke fill markers" d=" M 199.47612854170256 487.8384327699997 A 5.625 5.625 0 1 1 199.4761257292028 487.8328077709372 Z"/><path fill="#c74440" stroke="none" class="dcg-svg-point" paint-order="stroke fill markers" d=" M 358.51459054360936 349.47299118751107 A 11.25 11.25 0 1 1 358.51458491860984 349.4617411893861 L 352.88959054360936 349.47299118751107 A 5.625 5.625 0 1 0 352.8895877311096 349.47861618657356 Z"/><path fill="white" stroke="none" class="dcg-svg-point" paint-order="stroke fill markers" d=" M 352.88959054360936 349.47299118751107 A 5.625 5.625 0 1 1 352.8895877311096 349.4673661884486 Z"/><path fill="#c74440" stroke="none" class="dcg-svg-point" paint-order="stroke fill markers" d=" M 613.3288353226437 331.2073168317203 A 11.25 11.25 0 1 1 613.3288296976442 331.1960668335953 L 607.7038353226437 331.2073168317203 A 5.625 5.625 0 1 0 607.7038325101439 331.21294183078277 Z"/><path fill="white" stroke="none" class="dcg-svg-point" paint-order="stroke fill markers" d=" M 607.7038353226437 331.2073168317203 A 5.625 5.625 0 1 1 607.7038325101439 331.2016918326578 Z"/><path fill="#c74440" stroke="none" class="dcg-svg-point" paint-order="stroke fill markers" d=" M 868.1430801016782 330.5950654987512 A 11.25 11.25 0 1 1 868.1430744766786 330.5838155006262 L 862.5180801016782 330.5950654987512 A 5.625 5.625 0 1 0 862.5180772891783 330.6006904978137 Z"/><path fill="white" stroke="none" class="dcg-svg-point" paint-order="stroke fill markers" d=" M 862.5180801016782 330.5950654987512 A 5.625 5.625 0 1 1 862.5180772891783 330.5894404996887 Z"/><path fill="#c74440" stroke="none" class="dcg-svg-point" paint-order="stroke fill markers" d=" M 1122.9573248807123 329.11532609647475 A 11.25 11.25 0 1 1 1122.9573192557127 329.10407609834976 L 1117.3323248807123 329.11532609647475 A 5.625 5.625 0 1 0 1117.3323220682125 329.12095109553724 Z"/><path fill="white" stroke="none" class="dcg-svg-point" paint-order="stroke fill markers" d=" M 1117.3323248807123 329.11532609647475 A 5.625 5.625 0 1 1 1117.3323220682125 329.10970109741226 Z"/></g><g id="sketch-b6037757"><title>Expression 9</title><path fill="#2d70b3" stroke="none" paint-order="stroke fill markers" d="" fill-opacity="0.4"/><g><path fill="none" stroke="#2d70b3" class="dcg-svg-curve" paint-order="fill stroke markers" d=" M 68.91995463236233 808 L 68.91995463236233 808 L 69.14062499999997 780.6768367112008 L 70.31250000000003 714.7459079402759 L 71.77734375 666.3373598677051 L 73.53515624999997 627.8671039324037 L 75.5859375 595.9290218273476 L 77.92968749999997 568.6673070930067 L 80.56640625 544.9471430834755 L 83.49609374999997 524.0188007757406 L 86.71875 505.358570728739 L 90.23437499999997 488.58482124376405 L 94.04296875 473.4100213877722 L 98.14453124999994 459.61158313988085 L 102.53906249999994 447.01325482861307 L 107.22656249999994 435.4727663801424 L 112.20703125 424.8733504380468 L 117.48046875 415.11775900153793 L 123.046875 406.12393926293385 L 129.19921874999994 397.4339269090126 L 135.64453125 389.469106739547 L 142.67578124999994 381.8596751381924 L 150.5859375 374.3948118504121 L 159.08203125 367.42871165747385 L 167.87109375 361.1580994582366 L 177.24609375 355.3304530119019 L 186.9140625 350.0902886245523 L 197.16796875 345.24156305441375 L 208.0078125 340.77735162345516 L 219.72656249999994 336.5889937154477 L 232.32421875 332.70210332055524 L 245.80078124999994 329.13077065264747 L 260.44921874999994 325.81853078211554 L 276.56249999999994 322.73943551435104 L 294.14062499999994 319.93149393564215 L 313.76953125 317.34556621371803 L 335.7421875 315.0000314475884 L 360.3515625 312.9137919849147 L 388.4765624999999 311.0675862088432 L 420.99609375 309.4686549981101 L 459.66796875 308.1068777347524 L 506.8359375 306.9899272943046 L 566.6015625 306.1209307066807 L 647.7539062499999 305.49462655001275 L 772.265625 305.10550319923857 L 1026.26953125 304.93775084258016 L 1200 304.9228818106584" stroke-linecap="round" stroke-linejoin="round" stroke-miterlimit="10" stroke-width="5" stroke-dasharray=""/></g></g><g id="sketch-b6037757"><title/><path fill="#2d70b3" stroke="none" class="dcg-svg-point" paint-order="stroke fill markers" d=" M 205.10112854170256 340.1022754793239 A 11.25 11.25 0 1 1 205.10112291670305 340.0910254811989 L 199.47612854170256 340.1022754793239 A 5.625 5.625 0 1 0 199.4761257292028 340.1079004783864 Z"/><path fill="white" stroke="none" class="dcg-svg-point" paint-order="stroke fill markers" d=" M 199.47612854170256 340.1022754793239 A 5.625 5.625 0 1 1 199.4761257292028 340.0966504802614 Z"/><path fill="#2d70b3" stroke="none" class="dcg-svg-point" paint-order="stroke fill markers" d=" M 358.51459054360936 312.0237010857637 A 11.25 11.25 0 1 1 358.51458491860984 312.01245108763874 L 352.88959054360936 312.0237010857637 A 5.625 5.625 0 1 0 352.8895877311096 312.0293260848262 Z"/><path fill="white" stroke="none" class="dcg-svg-point" paint-order="stroke fill markers" d=" M 352.88959054360936 312.0237010857637 A 5.625 5.625 0 1 1 352.8895877311096 312.0180760867012 Z"/><path fill="#2d70b3" stroke="none" class="dcg-svg-point" paint-order="stroke fill markers" d=" M 613.3288353226437 304.0350978126279 A 11.25 11.25 0 1 1 613.3288296976442 304.0238478145029 L 607.7038353226437 304.0350978126279 A 5.625 5.625 0 1 0 607.7038325101439 304.0407228116904 Z"/><path fill="white" stroke="none" class="dcg-svg-point" paint-order="stroke fill markers" d=" M 607.7038353226437 304.0350978126279 A 5.625 5.625 0 1 1 607.7038325101439 304.0294728135654 Z"/><path fill="#2d70b3" stroke="none" class="dcg-svg-point" paint-order="stroke fill markers" d=" M 868.1430801016782 302.76381878187556 A 11.25 11.25 0 1 1 868.1430744766786 302.7525687837506 L 862.5180801016782 302.76381878187556 A 5.625 5.625 0 1 0 862.5180772891783 302.76944378093805 Z"/><path fill="white" stroke="none" class="dcg-svg-point" paint-order="stroke fill markers" d=" M 862.5180801016782 302.76381878187556 A 5.625 5.625 0 1 1 862.5180772891783 302.75819378281307 Z"/><path fill="#2d70b3" stroke="none" class="dcg-svg-point" paint-order="stroke fill markers" d=" M 1122.9573248807123 303.3022394066619 A 11.25 11.25 0 1 1 1122.9573192557127 303.2909894085369 L 1117.3323248807123 303.3022394066619 A 5.625 5.625 0 1 0 1117.3323220682125 303.3078644057244 Z"/><path fill="white" stroke="none" class="dcg-svg-point" paint-order="stroke fill markers" d=" M 1117.3323248807123 303.3022394066619 A 5.625 5.625 0 1 1 1117.3323220682125 303.2966144075994 Z"/></g><g id="sketch-b6037757"><title>Expression 11</title><path fill="#348543" stroke="none" paint-order="stroke fill markers" d="" fill-opacity="0.4"/><g><path fill="none" stroke="#348543" class="dcg-svg-curve" paint-order="fill stroke markers" d=" M 171.9048369281495 808 L 171.9048369281495 808 L 173.14453124999994 766.5878364190808 L 174.90234374999994 727.8400861428447 L 176.95312499999994 695.7361043811537 L 179.29687499999994 668.3668509657027 L 181.93359374999994 644.5728296743637 L 184.86328125 623.5915023871355 L 188.08593749999994 604.8919415321077 L 191.6015625 588.0881834882049 L 195.41015624999994 572.889964380723 L 199.51171875 559.0729004012886 L 203.90624999999994 546.4595192434138 L 208.59374999999994 534.9066970211236 L 213.57421875 524.2970542812997 L 218.84765624999994 514.5328947386485 L 224.4140625 505.5318310629932 L 230.56640624999994 496.83536808116514 L 237.01171874999994 488.86507318362237 L 244.04296875 481.25077391414845 L 251.95312499999994 473.7814563088335 L 260.44921874999994 466.81146725722067 L 269.23828124999994 460.53756194729647 L 278.61328124999994 454.7070212161003 L 288.28124999999994 449.4643839198791 L 298.53515625 444.6134742541433 L 309.37499999999994 440.1473365175409 L 321.09375 435.95724206549687 L 333.69140625 432.06879905950973 L 347.16796875 428.496088085893 L 361.81640625 425.18260986317773 L 377.9296875 422.1023968590489 L 395.5078125 419.2934632877967 L 415.13671875 416.70664445964246 L 437.109375 414.3603196078917 L 461.7187499999999 412.2733916249173 L 489.8437499999999 410.42658750110866 L 522.3632812499999 408.8271462545863 L 561.0351562499999 407.4649404970269 L 608.2031249999999 406.3476425952724 L 667.96875 405.4783781453335 L 749.1210937499999 404.8518822618274 L 873.6328124999999 404.46264034770695 L 1127.63671875 404.2948370091424 L 1200 404.2858219839072" stroke-linecap="round" stroke-linejoin="round" stroke-miterlimit="10" stroke-width="5" stroke-dasharray=""/></g></g><g id="sketch-b6037757"><title/><path fill="#348543" stroke="none" class="dcg-svg-point" paint-order="stroke fill markers" d=" M 205.10112854170256 568.892617245859 A 11.25 11.25 0 1 1 205.10112291670305 568.881367247734 L 199.47612854170256 568.892617245859 A 5.625 5.625 0 1 0 199.4761257292028 568.8982422449216 Z"/><path fill="white" stroke="none" class="dcg-svg-point" paint-order="stroke fill markers" d=" M 199.47612854170256 568.892617245859 A 5.625 5.625 0 1 1 199.4761257292028 568.8869922467965 Z"/><path fill="#348543" stroke="none" class="dcg-svg-point" paint-order="stroke fill markers" d=" M 358.51459054360936 427.2604070125369 A 11.25 11.25 0 1 1 358.51458491860984 427.24915701441194 L 352.88959054360936 427.2604070125369 A 5.625 5.625 0 1 0 352.8895877311096 427.2660320115994 Z"/><path fill="white" stroke="none" class="dcg-svg-point" paint-order="stroke fill markers" d=" M 352.88959054360936 427.2604070125369 A 5.625 5.625 0 1 1 352.8895877311096 427.2547820134744 Z"/><path fill="#348543" stroke="none" class="dcg-svg-point" paint-order="stroke fill markers" d=" M 613.3288353226437 402.59780879078414 A 11.25 11.25 0 1 1 613.3288296976442 402.58655879265916 L 607.7038353226437 402.59780879078414 A 5.625 5.625 0 1 0 607.7038325101439 402.60343378984663 Z"/><path fill="white" stroke="none" class="dcg-svg-point" paint-order="stroke fill markers" d=" M 607.7038353226437 402.59780879078414 A 5.625 5.625 0 1 1 607.7038325101439 402.59218379172165 Z"/><path fill="#348543" stroke="none" class="dcg-svg-point" paint-order="stroke fill markers" d=" M 868.1430801016782 404.86165129968026 A 11.25 11.25 0 1 1 868.1430744766786 404.8504013015553 L 862.5180801016782 404.86165129968026 A 5.625 5.625 0 1 0 862.5180772891783 404.86727629874275 Z"/><path fill="white" stroke="none" class="dcg-svg-point" paint-order="stroke fill markers" d=" M 862.5180801016782 404.86165129968026 A 5.625 5.625 0 1 1 862.5180772891783 404.85602630061777 Z"/><path fill="#348543" stroke="none" class="dcg-svg-point" paint-order="stroke fill markers" d=" M 1122.9573248807123 404.1248396355038 A 11.25 11.25 0 1 1 1122.9573192557127 404.1135896373788 L 1117.3323248807123 404.1248396355038 A 5.625 5.625 0 1 0 1117.3323220682125 404.1304646345663 Z"/><path fill="white" stroke="none" class="dcg-svg-point" paint-order="stroke fill markers" d=" M 1117.3323248807123 404.1248396355038 A 5.625 5.625 0 1 1 1117.3323220682125 404.1192146364413 Z"/></g></g><g id="labels-b6037757"/><g id="labels-b6037757"/></g></svg>